<?xml version="1.0" encoding="utf-8"?>
<!-- Generator: Adobe Illustrator 20.0.0, SVG Export Plug-In . SVG Version: 6.00 Build 0)  -->
<svg version="1.1" id="Layer_1" xmlns="http://www.w3.org/2000/svg" xmlns:xlink="http://www.w3.org/1999/xlink" x="0px" y="0px"
	 viewBox="0 0 1920 1080" style="enable-background:new 0 0 1920 1080;" xml:space="preserve">
<style type="text/css">
	.st0{fill:none;}
	.st1{fill:#2C973E;}
	.st2{fill:url(#SVGID_1_);}
	.st3{fill:url(#SVGID_2_);}
	.st4{fill:url(#SVGID_3_);}
	.st5{fill:#FFC20E;}
	.st6{fill:url(#SVGID_4_);}
	.st7{fill:url(#SVGID_5_);}
	.st8{fill:url(#SVGID_6_);}
	.st9{fill:url(#SVGID_7_);}
	.st10{fill:url(#SVGID_8_);}
	.st11{fill:url(#SVGID_9_);}
	.st12{fill:url(#SVGID_10_);}
	.st13{fill:url(#SVGID_11_);}
	.st14{fill:url(#SVGID_12_);}
	.st15{fill:url(#SVGID_13_);}
	.st16{fill:url(#SVGID_14_);}
	.st17{fill:url(#SVGID_15_);}
	.st18{fill:url(#SVGID_16_);}
	.st19{fill:url(#SVGID_17_);}
	.st20{fill:url(#SVGID_18_);}
	.st21{fill:url(#SVGID_19_);}
	.st22{fill:url(#SVGID_20_);}
	.st23{fill:url(#SVGID_21_);}
	.st24{fill:#009444;stroke:#000000;stroke-miterlimit:10;}
	.st25{fill:#C49A6C;stroke:#000000;stroke-miterlimit:10;}
	.st26{fill:url(#Foliage);stroke:#000000;stroke-miterlimit:10;}
	.st27{fill:#27AAE1;stroke:#000000;stroke-miterlimit:10;}
	.st28{fill:#FFF200;stroke:#000000;stroke-miterlimit:10;}
	.st29{fill:#ED1C24;stroke:#000000;stroke-miterlimit:10;}
	.st30{fill:#BCBEC0;stroke:#000000;stroke-miterlimit:10;}
	.st31{font-family:'MyriadPro-Regular';}
	.st32{font-size:12px;}
	.st33{stroke:#000000;stroke-miterlimit:10;}
	.st34{font-family:'Verdana';}
	.st35{font-size:18px;}
</style>
<pattern  width="297.1" height="392" patternUnits="userSpaceOnUse" id="Foliage" viewBox="146.6 -510.8 297.1 392" style="overflow:visible;">
	<g>
		<rect x="146.6" y="-510.8" class="st0" width="297.1" height="392"/>
		<g>
			<path class="st1" d="M375.9-187.4c5.5,4.6,10.7,12.5,11.4,22.8c1.1-10.2,3.2-18.1,8.2-24c0,0-6.3,3.1-8.6,9.2
				C384-184.7,375.9-187.4,375.9-187.4z"/>
			<path class="st1" d="M361.9-238.3c1.2,6,6.3,11.2,12.9,13.7c-2.7-7-1.7-13.8,2.2-19.8c-0.9,7.8,1.5,13.2,5.8,18
				c-1.4-4.8-1.2-9.3,1.1-13.9c-0.9,8.5,6.2,12.8,15.6,18.4c12.7,7.6,17.3,16,19.2,27.2c-3.5-6.9-9.9-13.1-27.9-17.3
				C368.5-216.9,360.4-224.2,361.9-238.3z"/>
			
				<linearGradient id="SVGID_1_" gradientUnits="userSpaceOnUse" x1="-46566.5352" y1="-60131.668" x2="-46589.832" y2="-60123.7305" gradientTransform="matrix(1 0 0 -1 46931.6836 -60280.9766)">
				<stop  offset="0.2331" style="stop-color:#FAA61A"/>
				<stop  offset="0.7607" style="stop-color:#FFC20E"/>
			</linearGradient>
			<path class="st2" d="M362.1-146c-4.7-4.6-6.9-12.2-7.3-21.7c-0.5-12.5-5.4-17.7-13.3-18.5c11.8,4.6,4.4,17.1,7.9,25.8
				c-6.4-4.8-4.4-20.7-17.6-21.4c9.8,3.2,2.8,16.7,9.3,24.5c-7.8-0.1-11.4,6.1-21.5,3.2c4.7,3.6,10,5.9,18.8,5.9
				c-6.3,3.9-9,8.6-11.3,15.3C337.3-143.4,352-147.5,362.1-146z"/>
			
				<radialGradient id="SVGID_2_" cx="-46488.0078" cy="-60162.0977" r="133.4365" gradientTransform="matrix(1 0 0 -1 46931.6836 -60280.9766)" gradientUnits="userSpaceOnUse">
				<stop  offset="0.3479" style="stop-color:#58AB40"/>
				<stop  offset="0.7607" style="stop-color:#80C342"/>
			</radialGradient>
			<path class="st3" d="M479.5-111.6c29.4,4,46.2,20.8,49.1,36.6c-3.9-9.3-13-15.2-23.6-18.6c10.6,14,7.2,31.9,21.1,41.7
				c-10.4-11-7.2-24.5-14.9-36.7c12.3,6.9,14.1,16.7,17,27.1c4.4,15.8,11.5,20.1,17.2,22.2c-11.7,0.5-28.7-4.5-36.8-20.1
				c-8.6-16.5-1.4-34.4-22.5-43.8c9.6,8.1,14.7,19.5,8.7,34.4c2.3-21.9-20.6-25.5-24.3-40.5c-0.6,11.5,7.2,21.2,14.5,25.9
				c-10.3-3.4-19.2-9-23.4-21.8c-6.9,21.4,5.3,38.5,12.9,38.5c2.6,0,4.5-1.7,4.5-4.2c0-6.4-11.6-6.4-14.6-18.9
				c5.3,10.8,25.5,8.9,25.5,20.8c0,9.7-13.6,14-22.4,8c6.4,8.3,21.3,8.6,25.6-1.4c0.7,4.3-1.3,10.8-7.5,13.1
				c-7,2.7-13.5-2.5-13.5-2.5c7.6,11,20.9,3.7,34.1,3.9c10.9,0.2,18.1,5.8,21.3,11.2c-3-1.5-4.6-1.9-7.6-2c6.3,3.9,10.8,12.8,9,21.5
				c-1.3-6.2-8.6-10.7-22.4-11.6c-15.6-1.1-23.8-3.6-29.1-9.3c11.2,5,28.9-1.9,41,6c-7.5-8.5-23.9-6.1-35.7-8
				c-20.7-3.3-33.3-38.3-31.7-53.6c-5.7,23.4,9.5,36.2,12.8,49.1c3.6,14.1-3.4,23.8-9.9,28.8c10.3-15.4-7.4-24.6-4.6-44.4
				C444.3-41,454-35.5,454-25.5c0,9.8-8.6,13-10.3,25.5c-1.7-12.6-10.3-15.8-10.3-25.5c0-9.9,9.7-15.4,4.4-34.6
				c2.8,19.7-14.9,29-4.6,44.4c-6.6-5-13.6-14.7-9.9-28.8c3.3-12.9,18.4-25.7,12.8-49.1c1.6,15.3-11,50.3-31.7,53.6
				c-11.8,1.9-28.3-0.6-35.7,8c12-7.9,29.8-1.1,41-6c-5.3,5.7-13.5,8.2-29.1,9.3c-13.8,1-21.1,5.4-22.4,11.6
				c-1.8-8.7,2.8-17.6,9-21.5c-3,0.1-4.7,0.5-7.6,2c3.2-5.4,10.4-11,21.3-11.2c13.1-0.2,26.4,7.1,34.1-3.9c0,0-6.5,5.2-13.5,2.5
				c-6.1-2.4-8.1-8.8-7.5-13.1c4.3,10,19.2,9.8,25.5,1.4c-8.7,6.1-22.4,1.8-22.4-8c0-11.9,20.2-9.9,25.6-20.8
				c-3,12.4-14.6,12.4-14.6,18.9c0,2.5,1.9,4.2,4.5,4.2c7.6,0,19.8-17.1,12.9-38.5c-4.2,12.8-13.1,18.5-23.4,21.8
				c7.4-4.7,15.2-14.4,14.5-25.9c-3.7,14.9-26.6,18.5-24.3,40.5c-6-14.9-0.9-26.4,8.7-34.4c-21,9.4-13.9,27.3-22.5,43.8
				c-8.1,15.6-25.1,20.6-36.8,20.1c5.7-2.1,12.8-6.3,17.2-22.2c2.9-10.5,4.8-20.3,17-27.1c-7.7,12.3-4.5,25.7-14.9,36.7
				c13.9-9.8,10.5-27.7,21.1-41.7c-10.6,3.4-19.7,9.4-23.6,18.6c2.9-15.8,19.7-32.5,49.1-36.6c-30.3-1.3-36.2,15.6-51.5,16.2
				c-9.7,0.4-18.1-8.4-28-13.7c12.1,3.1,31.1,11.3,41.2-2.1c0,0-6.2,5.3-18.3,3.7c-12.3-1.6-23.5-9.4-54.1-11.4
				c30.7-2,41.8-9.8,54.1-11.4c12.1-1.5,18.3,3.7,18.3,3.7c-10.1-13.5-29.1-5.2-41.2-2.1c9.9-5.3,18.4-14.1,28-13.7
				c15.3,0.6,21.1,17.5,51.5,16.2c-29.4-4-46.2-20.8-49.1-36.5c3.9,9.2,13,15.2,23.6,18.6c-10.6-14-7.2-31.9-21.1-41.7
				c10.4,11,7.2,24.5,14.9,36.7c-12.3-6.9-14.1-16.7-17-27.1c-4.4-15.8-11.5-20.1-17.2-22.2c11.7-0.4,28.7,4.5,36.8,20.1
				c8.6,16.5,1.4,34.4,22.5,43.8c-9.6-8.1-14.7-19.5-8.7-34.4c-2.3,21.9,20.6,25.5,24.3,40.5c0.6-11.5-7.2-21.2-14.5-25.9
				c10.3,3.4,19.2,9,23.4,21.8c6.9-21.4-5.3-38.5-12.9-38.5c-2.6,0-4.5,1.7-4.5,4.2c0,6.5,11.6,6.5,14.6,18.9
				c-5.3-10.8-25.6-8.9-25.6-20.8c0-9.7,13.6-14,22.4-8c-6.4-8.3-21.3-8.6-25.5,1.4c-0.7-4.3,1.3-10.8,7.5-13.1
				c7-2.7,13.5,2.5,13.5,2.5c-7.6-11-20.9-3.7-34.1-3.9c-10.9-0.2-18.1-5.8-21.3-11.2c3,1.5,4.6,1.9,7.6,2
				c-6.3-3.9-10.8-12.8-9-21.5c1.3,6.2,8.6,10.7,22.4,11.6c15.6,1.1,23.8,3.6,29.1,9.3c-11.2-5-28.9,1.9-41-6
				c7.5,8.5,23.9,6.1,35.7,8c20.7,3.3,33.3,38.3,31.7,53.6c5.7-23.4-9.5-36.2-12.8-49.1c-3.6-14.1,3.4-23.8,9.9-28.8
				c-10.3,15.4,7.4,24.6,4.6,44.4c5.2-19.2-4.4-24.7-4.4-34.6c0-9.8,8.6-13,10.3-25.5c1.7,12.6,10.3,15.8,10.3,25.5
				c0,9.9-9.7,15.4-4.4,34.6c-2.8-19.7,14.9-29,4.6-44.4c6.6,5,13.6,14.7,9.9,28.8c-3.3,12.9-18.4,25.7-12.8,49.1
				c-1.6-15.3,11-50.3,31.7-53.6c11.8-1.9,28.3,0.6,35.7-8c-12.1,7.9-29.8,1.1-41,6c5.3-5.7,13.5-8.2,29.1-9.3
				c13.8-1,21.1-5.4,22.4-11.6c1.8,8.7-2.8,17.6-9,21.5c3-0.1,4.7-0.5,7.6-2c-3.2,5.4-10.4,11-21.3,11.2
				c-13.1,0.2-26.4-7.1-34.1,3.9c0,0,6.5-5.2,13.5-2.5c6.1,2.4,8.1,8.8,7.5,13.1c-4.3-10-19.2-9.8-25.6-1.4c8.7-6.1,22.4-1.8,22.4,8
				c0,11.9-20.2,9.9-25.5,20.8c3-12.4,14.6-12.4,14.6-18.9c0-2.5-1.9-4.2-4.5-4.2c-7.6,0-19.8,17.1-12.9,38.5
				c4.2-12.8,13.1-18.5,23.4-21.8c-7.4,4.7-15.2,14.4-14.5,25.9c3.7-14.9,26.6-18.5,24.3-40.5c6,14.9,0.9,26.4-8.7,34.4
				c21-9.4,13.9-27.3,22.5-43.8c8.1-15.6,25.1-20.6,36.8-20.1c-5.7,2.1-12.8,6.3-17.2,22.2c-2.9,10.5-4.8,20.3-17,27.1
				c7.7-12.3,4.5-25.7,14.9-36.7c-13.9,9.8-10.5,27.7-21.1,41.7c10.6-3.4,19.7-9.4,23.6-18.6c-2.9,15.8-19.7,32.5-49.1,36.5
				c30.3,1.3,36.2-15.6,51.5-16.2c9.7-0.4,18.1,8.4,28,13.7c-12.1-3.1-31.1-11.3-41.2,2.1c0,0,6.2-5.3,18.3-3.7
				c12.3,1.6,23.5,9.4,54.1,11.4c-30.7,2-41.8,9.8-54.1,11.4c-12.1,1.5-18.3-3.7-18.3-3.7c10.1,13.5,29.1,5.2,41.2,2.1
				c-9.9,5.3-18.4,14.1-28,13.7C515.7-96,509.8-112.9,479.5-111.6z M512.9-118.9c4.6,1.2,8.6,3.8,14.5,3.8c7.1,0,11.1-2.8,16.7-3.8
				c-5.7-1-9.6-3.8-16.7-3.8C521.5-122.6,517.5-120.1,512.9-118.9z M440.7-209.2c0,5.1,3,8.4,3,12.1c0-3.7,3-7,3-12.1
				c0-4.6-2.3-6.7-3-11.4C442.9-215.8,440.7-213.8,440.7-209.2z M374.5-118.9c-4.6-1.2-8.6-3.8-14.5-3.8c-7.1,0-11.1,2.8-16.7,3.8
				c5.7,1,9.6,3.8,16.7,3.8C365.8-115.1,369.9-117.6,374.5-118.9z M446.7-28.6c0-5.1-3-8.4-3-12.1c0,3.7-3,7-3,12.1
				c0,4.6,2.2,6.7,3,11.4C444.4-21.9,446.7-24,446.7-28.6z M488.7-118.9c-9.9,0-24.1-5-35-3c3.4-2.1,5-3.7,7.5-6.7
				c-4.4,0.4-6.8,0.8-10.1,2.3c2.7-6,3.2-9.4,3.7-15.4c-3.1,3.6-4.6,5.7-6.6,10.6c0.7-12.4-4.3-15.2-4.6-31.8
				c-0.4,16.5-5.3,19.3-4.6,31.8c-1.9-4.9-3.5-7.1-6.6-10.6c0.5,6,1.1,9.4,3.7,15.4c-3.4-1.5-5.7-1.9-10.1-2.3
				c2.5,3.1,4,4.6,7.5,6.7c-10.9-2-25,3-35,3c9.9,0,24.1,5,35,3c-3.4,2.1-5,3.7-7.5,6.7c4.4-0.4,6.8-0.8,10.1-2.3
				c-2.7,6-3.2,9.4-3.7,15.4c3.1-3.6,4.6-5.7,6.6-10.6c-0.7,12.4,4.3,15.2,4.6,31.8c0.4-16.5,5.3-19.3,4.6-31.8
				c1.9,4.9,3.5,7.1,6.6,10.6c-0.5-6-1.1-9.4-3.7-15.4c3.4,1.5,5.7,1.9,10.1,2.3c-2.5-3.1-4-4.6-7.5-6.7
				C464.7-113.9,478.8-118.9,488.7-118.9z"/>
			
				<linearGradient id="SVGID_3_" gradientUnits="userSpaceOnUse" x1="62941.3984" y1="-60075.8477" x2="62941.3984" y2="-60047.7383" gradientTransform="matrix(-1 0 0 -1 63356.1094 -60280.9766)">
				<stop  offset="0.2331" style="stop-color:#FAA61A"/>
				<stop  offset="0.7607" style="stop-color:#FFC20E"/>
			</linearGradient>
			<path class="st4" d="M388.8-240.1c2.6,13.8,25.4,16.3,30.3,34.1c3.8-19.1,21.3-19.9,21.5-33.1c-3.2,7.8-10.8,5.8-15.9,12.1
				c0.8-6.2,4.6-11.9,12.4-15.1c-7.7-1.1-15.6,1.8-19.1,9.6c-2.6-4.2-2.8-8.4-0.7-13.9c-4.7,3.6-7.5,9.3-5.7,16.6
				C404.4-237.2,393.8-233.1,388.8-240.1z"/>
			<path class="st5" d="M461.9-118.9c-4.3-0.7-9.4-3.2-14.1-1.2c2.3-1.8,1.1-3.5,2.5-5.2c-1.9,1.4-3.5,0.5-5,2.7
				c1.5-5.3-0.5-8.1-1.6-14.1c-1.1,6-3.2,8.8-1.6,14.1c-1.5-2.2-3.1-1.4-5-2.7c1.4,1.7,0.2,3.4,2.5,5.2c-4.7-2-9.9,0.6-14.1,1.2
				c4.3,0.7,9.4,3.2,14.1,1.2c-2.3,1.8-1.1,3.5-2.5,5.2c1.9-1.4,3.5-0.5,5-2.7c-1.5,5.3,0.5,8.1,1.6,14.1c1.1-6,3.2-8.8,1.6-14.1
				c1.5,2.2,3.1,1.4,5,2.7c-1.4-1.7-0.2-3.4-2.5-5.2C452.5-115.7,457.6-118.2,461.9-118.9z"/>
		</g>
		<g>
			
				<linearGradient id="SVGID_4_" gradientUnits="userSpaceOnUse" x1="63131.0234" y1="-60131.668" x2="63107.7266" y2="-60123.7305" gradientTransform="matrix(-1 0 0 -1 63356.1094 -60280.9766)">
				<stop  offset="0.2331" style="stop-color:#FAA61A"/>
				<stop  offset="0.7607" style="stop-color:#FFC20E"/>
			</linearGradient>
			<path class="st6" d="M228.1-146c4.7-4.6,6.9-12.2,7.3-21.7c0.5-12.5,5.4-17.7,13.3-18.5c-11.8,4.6-4.4,17.1-7.9,25.8
				c6.4-4.8,4.4-20.7,17.6-21.4c-9.8,3.2-2.8,16.7-9.3,24.5c7.8-0.1,11.4,6.1,21.5,3.2c-4.7,3.6-10,5.9-18.8,5.9
				c6.3,3.9,9,8.6,11.3,15.3C253-143.4,238.2-147.5,228.1-146z"/>
			<path class="st1" d="M214.4-187.4c-5.5,4.6-10.7,12.5-11.4,22.8c-1.1-10.2-3.2-18.1-8.2-24c0,0,6.3,3.1,8.6,9.2
				C206.3-184.7,214.4-187.4,214.4-187.4z"/>
			<path class="st1" d="M228.4-238.3c-1.2,6-6.3,11.2-12.9,13.7c2.7-7,1.7-13.8-2.2-19.8c0.9,7.8-1.5,13.2-5.8,18
				c1.4-4.8,1.2-9.3-1.1-13.9c0.9,8.5-6.2,12.8-15.6,18.4c-12.7,7.6-17.3,16-19.3,27.2c3.5-6.9,9.9-13.1,27.9-17.3
				C221.7-216.9,229.8-224.2,228.4-238.3z"/>
			
				<linearGradient id="SVGID_5_" gradientUnits="userSpaceOnUse" x1="-46756.1602" y1="-60075.8477" x2="-46756.1602" y2="-60047.7383" gradientTransform="matrix(1 0 0 -1 46931.6836 -60280.9766)">
				<stop  offset="0.2331" style="stop-color:#FAA61A"/>
				<stop  offset="0.7607" style="stop-color:#FFC20E"/>
			</linearGradient>
			<path class="st7" d="M201.4-240.1c-2.6,13.8-25.4,16.3-30.3,34.1c-3.8-19.1-21.3-19.9-21.5-33.1c3.2,7.8,10.8,5.8,15.9,12.1
				c-0.8-6.2-4.6-11.9-12.4-15.1c7.7-1.1,15.6,1.8,19.1,9.6c2.6-4.2,2.8-8.4,0.7-13.9c4.7,3.6,7.5,9.3,5.7,16.6
				C185.8-237.2,196.5-233.1,201.4-240.1z"/>
			
				<radialGradient id="SVGID_6_" cx="-46785.125" cy="-60162.0977" r="133.4365" gradientTransform="matrix(1 0 0 -1 46931.6836 -60280.9766)" gradientUnits="userSpaceOnUse">
				<stop  offset="0.3479" style="stop-color:#58AB40"/>
				<stop  offset="0.7607" style="stop-color:#80C342"/>
			</radialGradient>
			<path class="st8" d="M182.4-111.6c29.4,4,46.2,20.8,49.1,36.6c-3.9-9.3-13-15.2-23.6-18.6c10.6,14,7.2,31.9,21.1,41.7
				c-10.4-11-7.2-24.5-14.9-36.7c12.3,6.9,14.1,16.7,17,27.1c4.4,15.8,11.5,20.1,17.2,22.2c-11.7,0.5-28.7-4.5-36.8-20.1
				c-8.6-16.5-1.4-34.4-22.5-43.8c9.6,8.1,14.7,19.5,8.7,34.4c2.3-21.9-20.6-25.5-24.3-40.5c-0.6,11.5,7.2,21.2,14.5,25.9
				c-10.3-3.4-19.2-9-23.4-21.8c-6.9,21.4,5.3,38.5,12.9,38.5c2.6,0,4.5-1.7,4.5-4.2c0-6.4-11.6-6.4-14.6-18.9
				C172.8-79,193-80.9,193-69c0,9.7-13.6,14-22.4,8c6.4,8.3,21.3,8.6,25.6-1.4c0.7,4.3-1.3,10.8-7.5,13.1c-7,2.7-13.5-2.5-13.5-2.5
				c7.6,11,20.9,3.7,34.1,3.9c10.9,0.2,18.1,5.8,21.3,11.2c-3-1.5-4.6-1.9-7.6-2c6.3,3.9,10.8,12.8,9,21.5
				c-1.3-6.2-8.6-10.7-22.4-11.6c-15.6-1.1-23.8-3.6-29.1-9.3c11.2,5,28.9-1.9,41,6c-7.5-8.5-23.9-6.1-35.7-8
				c-20.7-3.3-33.3-38.3-31.7-53.6c-5.7,23.4,9.5,36.2,12.8,49.1c3.6,14.1-3.4,23.8-9.9,28.8c10.3-15.4-7.4-24.6-4.6-44.4
				c-5.2,19.2,4.4,24.7,4.4,34.6c0,9.8-8.6,13-10.3,25.5c-1.7-12.6-10.3-15.8-10.3-25.5c0-9.9,9.7-15.4,4.4-34.6
				c2.8,19.7-14.9,29-4.6,44.4c-6.6-5-13.6-14.7-9.9-28.8c3.3-12.9,18.4-25.7,12.8-49.1c1.6,15.3-11,50.3-31.7,53.6
				c-11.8,1.9-28.3-0.6-35.7,8c12-7.9,29.8-1.1,41-6c-5.3,5.7-13.5,8.2-29.1,9.3c-13.8,1-21.1,5.4-22.4,11.6
				c-1.8-8.7,2.8-17.6,9-21.5c-3,0.1-4.7,0.5-7.6,2c3.2-5.4,10.4-11,21.3-11.2c13.1-0.2,26.4,7.1,34.1-3.9c0,0-6.5,5.2-13.5,2.5
				c-6.1-2.4-8.1-8.8-7.5-13.1c4.3,10,19.2,9.8,25.5,1.4c-8.7,6.1-22.4,1.8-22.4-8c0-11.9,20.2-9.9,25.6-20.8
				c-3,12.4-14.6,12.4-14.6,18.9c0,2.5,1.9,4.2,4.5,4.2c7.6,0,19.8-17.1,12.9-38.5c-4.2,12.8-13.1,18.5-23.4,21.8
				c7.4-4.7,15.2-14.4,14.5-25.9C115.9-94.3,93-90.8,95.3-68.8c-6-14.9-0.9-26.4,8.7-34.4c-21,9.4-13.9,27.3-22.5,43.8
				c-8.1,15.6-25.1,20.6-36.8,20.1c5.7-2.1,12.8-6.3,17.2-22.2c2.9-10.5,4.8-20.3,17-27.1C71.3-76.4,74.4-63,64.1-52
				C78-61.8,74.6-79.7,85.2-93.7c-10.6,3.4-19.7,9.4-23.6,18.6c2.9-15.8,19.7-32.5,49.1-36.6C80.4-112.9,74.5-96,59.3-95.4
				c-9.7,0.4-18.1-8.4-28-13.7c12.1,3.1,31.1,11.3,41.2-2.1c0,0-6.2,5.3-18.3,3.7c-12.3-1.6-23.5-9.4-54.1-11.4
				c30.7-2,41.8-9.8,54.1-11.4c12.1-1.5,18.3,3.7,18.3,3.7c-10.1-13.5-29.1-5.2-41.2-2.1c9.9-5.3,18.4-14.1,28-13.7
				c15.3,0.6,21.1,17.5,51.5,16.2c-29.4-4-46.2-20.8-49.1-36.5c3.9,9.2,13,15.2,23.6,18.6c-10.6-14-7.2-31.9-21.1-41.7
				c10.4,11,7.2,24.5,14.9,36.7c-12.3-6.9-14.1-16.7-17-27.1c-4.4-15.8-11.5-20.1-17.2-22.2c11.7-0.4,28.7,4.5,36.8,20.1
				c8.6,16.5,1.4,34.4,22.5,43.8c-9.6-8.1-14.7-19.5-8.7-34.4c-2.3,21.9,20.6,25.5,24.3,40.5c0.6-11.5-7.2-21.2-14.5-25.9
				c10.3,3.4,19.2,9,23.4,21.8c6.9-21.4-5.3-38.5-12.9-38.5c-2.6,0-4.5,1.7-4.5,4.2c0,6.5,11.6,6.5,14.6,18.9
				c-5.3-10.8-25.6-8.9-25.6-20.8c0-9.7,13.6-14,22.4-8c-6.4-8.3-21.3-8.6-25.5,1.4c-0.7-4.3,1.3-10.8,7.5-13.1
				c7-2.7,13.5,2.5,13.5,2.5c-7.6-11-20.9-3.7-34.1-3.9c-10.9-0.2-18.1-5.8-21.3-11.2c3,1.5,4.6,1.9,7.6,2
				c-6.3-3.9-10.8-12.8-9-21.5c1.3,6.2,8.6,10.7,22.4,11.6c15.6,1.1,23.8,3.6,29.1,9.3c-11.2-5-28.9,1.9-41-6
				c7.5,8.5,23.9,6.1,35.7,8c20.7,3.3,33.3,38.3,31.7,53.6c5.7-23.4-9.5-36.2-12.8-49.1c-3.6-14.1,3.4-23.8,9.9-28.8
				c-10.3,15.4,7.4,24.6,4.6,44.4c5.2-19.2-4.4-24.7-4.4-34.6c0-9.8,8.6-13,10.3-25.5c1.7,12.6,10.3,15.8,10.3,25.5
				c0,9.9-9.7,15.4-4.4,34.6c-2.8-19.7,14.9-29,4.6-44.4c6.6,5,13.6,14.7,9.9,28.8c-3.3,12.9-18.4,25.7-12.8,49.1
				c-1.6-15.3,11-50.3,31.7-53.6c11.8-1.9,28.3,0.6,35.7-8c-12.1,7.9-29.8,1.1-41,6c5.3-5.7,13.5-8.2,29.1-9.3
				c13.8-1,21.1-5.4,22.4-11.6c1.8,8.7-2.8,17.6-9,21.5c3-0.1,4.7-0.5,7.6-2c-3.2,5.4-10.4,11-21.3,11.2
				c-13.1,0.2-26.4-7.1-34.1,3.9c0,0,6.5-5.2,13.5-2.5c6.1,2.4,8.1,8.8,7.5,13.1c-4.3-10-19.2-9.8-25.6-1.4c8.7-6.1,22.4-1.8,22.4,8
				c0,11.9-20.2,9.9-25.5,20.8c3-12.4,14.6-12.4,14.6-18.9c0-2.5-1.9-4.2-4.5-4.2c-7.6,0-19.8,17.1-12.9,38.5
				c4.2-12.8,13.1-18.5,23.4-21.8c-7.4,4.7-15.2,14.4-14.5,25.9c3.7-14.9,26.6-18.5,24.3-40.5c6,14.9,0.9,26.4-8.7,34.4
				c21-9.4,13.9-27.3,22.5-43.8c8.1-15.6,25.1-20.6,36.8-20.1c-5.7,2.1-12.8,6.3-17.2,22.2c-2.9,10.5-4.8,20.3-17,27.1
				c7.7-12.3,4.5-25.7,14.9-36.7c-13.9,9.8-10.5,27.7-21.1,41.7c10.6-3.4,19.7-9.4,23.6-18.6c-2.9,15.8-19.7,32.5-49.1,36.5
				c30.3,1.3,36.2-15.6,51.5-16.2c9.7-0.4,18.1,8.4,28,13.7c-12.1-3.1-31.1-11.3-41.2,2.1c0,0,6.2-5.3,18.3-3.7
				c12.3,1.6,23.5,9.4,54.1,11.4c-30.7,2-41.8,9.8-54.1,11.4c-12.1,1.5-18.3-3.7-18.3-3.7c10.1,13.5,29.1,5.2,41.2,2.1
				c-9.9,5.3-18.4,14.1-28,13.7C218.6-96,212.7-112.9,182.4-111.6z M215.8-118.9c4.6,1.2,8.6,3.8,14.5,3.8c7.1,0,11.1-2.8,16.7-3.8
				c-5.7-1-9.6-3.8-16.7-3.8C224.4-122.6,220.4-120.1,215.8-118.9z M143.5-209.2c0,5.1,3,8.4,3,12.1c0-3.7,3-7,3-12.1
				c0-4.6-2.3-6.7-3-11.4C145.8-215.8,143.5-213.8,143.5-209.2z M77.4-118.9c-4.6-1.2-8.6-3.8-14.5-3.8c-7.1,0-11.1,2.8-16.7,3.8
				c5.7,1,9.6,3.8,16.7,3.8C68.7-115.1,72.7-117.6,77.4-118.9z M149.6-28.6c0-5.1-3-8.4-3-12.1c0,3.7-3,7-3,12.1
				c0,4.6,2.2,6.7,3,11.4C147.3-21.9,149.6-24,149.6-28.6z M191.6-118.9c-9.9,0-24.1-5-35-3c3.4-2.1,5-3.7,7.5-6.7
				c-4.4,0.4-6.8,0.8-10.1,2.3c2.7-6,3.2-9.4,3.7-15.4c-3.1,3.6-4.6,5.7-6.6,10.6c0.7-12.4-4.3-15.2-4.6-31.8
				c-0.4,16.5-5.3,19.3-4.6,31.8c-1.9-4.9-3.5-7.1-6.6-10.6c0.5,6,1.1,9.4,3.7,15.4c-3.4-1.5-5.7-1.9-10.1-2.3
				c2.5,3.1,4,4.6,7.5,6.7c-10.9-2-25,3-35,3c9.9,0,24.1,5,35,3c-3.4,2.1-5,3.7-7.5,6.7c4.4-0.4,6.8-0.8,10.1-2.3
				c-2.7,6-3.2,9.4-3.7,15.4c3.1-3.6,4.6-5.7,6.6-10.6c-0.7,12.4,4.3,15.2,4.6,31.8c0.4-16.5,5.3-19.3,4.6-31.8
				c1.9,4.9,3.5,7.1,6.6,10.6c-0.5-6-1.1-9.4-3.7-15.4c3.4,1.5,5.7,1.9,10.1,2.3c-2.5-3.1-4-4.6-7.5-6.7
				C167.5-113.9,181.7-118.9,191.6-118.9z"/>
			<path class="st5" d="M164.8-118.9c-4.3-0.7-9.4-3.2-14.1-1.2c2.3-1.8,1.1-3.5,2.5-5.2c-1.9,1.4-3.5,0.5-5,2.7
				c1.5-5.3-0.5-8.1-1.6-14.1c-1.1,6-3.2,8.8-1.6,14.1c-1.5-2.2-3.1-1.4-5-2.7c1.4,1.7,0.2,3.4,2.5,5.2c-4.7-2-9.9,0.6-14.1,1.2
				c4.3,0.7,9.4,3.2,14.1,1.2c-2.3,1.8-1.1,3.5-2.5,5.2c1.9-1.4,3.5-0.5,5-2.7c-1.5,5.3,0.5,8.1,1.6,14.1c1.1-6,3.2-8.8,1.6-14.1
				c1.5,2.2,3.1,1.4,5,2.7c-1.4-1.7-0.2-3.4-2.5-5.2C155.4-115.7,160.5-118.2,164.8-118.9z"/>
		</g>
		<g>
			
				<linearGradient id="SVGID_7_" gradientUnits="userSpaceOnUse" x1="63025.957" y1="43566.6094" x2="63025.957" y2="43594.7148" gradientTransform="matrix(-1 0 0 1 63292.1094 -43795.2188)">
				<stop  offset="0.2331" style="stop-color:#FAA61A"/>
				<stop  offset="0.7607" style="stop-color:#FFC20E"/>
			</linearGradient>
			<path class="st9" d="M240.2-193.6c2.6-13.8,25.4-16.3,30.3-34.1c3.8,19.1,21.3,19.9,21.5,33.1c-3.2-7.8-10.8-5.8-15.9-12.1
				c0.8,6.2,4.6,11.9,12.4,15.1c-7.7,1.1-15.6-1.8-19.1-9.6c-2.6,4.2-2.8,8.4-0.7,13.9c-4.7-3.6-7.5-9.3-5.7-16.6
				C255.9-196.6,245.2-200.6,240.2-193.6z"/>
			
				<linearGradient id="SVGID_8_" gradientUnits="userSpaceOnUse" x1="-46543.6016" y1="43566.6094" x2="-46543.6016" y2="43594.7148" gradientTransform="matrix(1 0 0 1 46867.6836 -43795.2188)">
				<stop  offset="0.2331" style="stop-color:#FAA61A"/>
				<stop  offset="0.7607" style="stop-color:#FFC20E"/>
			</linearGradient>
			<path class="st10" d="M350-193.6c-2.6-13.8-25.4-16.3-30.3-34.1c-3.8,19.1-21.3,19.9-21.5,33.1c3.2-7.8,10.8-5.8,15.9-12.1
				c-0.8,6.2-4.6,11.9-12.4,15.1c7.7,1.1,15.6-1.8,19.1-9.6c2.6,4.2,2.8,8.4,0.7,13.9c4.7-3.6,7.5-9.3,5.7-16.6
				C334.4-196.6,345-200.6,350-193.6z"/>
			
				<linearGradient id="SVGID_9_" gradientUnits="userSpaceOnUse" x1="62982.4648" y1="-59935.6836" x2="62959.168" y2="-59927.7461" gradientTransform="matrix(-1 0 0 -1 63356.1094 -60280.9766)">
				<stop  offset="0.2331" style="stop-color:#FAA61A"/>
				<stop  offset="0.7607" style="stop-color:#FFC20E"/>
			</linearGradient>
			<path class="st11" d="M376.6-342c4.7-4.6,6.9-12.2,7.3-21.7c0.5-12.5,5.4-17.7,13.3-18.5c-11.8,4.6-4.4,17.1-7.9,25.8
				c6.4-4.8,4.4-20.7,17.6-21.4c-9.8,3.2-2.8,16.7-9.3,24.5c7.8-0.1,11.4,6.1,21.5,3.2c-4.7,3.6-10,5.9-18.8,5.9
				c6.3,3.9,9,8.6,11.3,15.3C401.5-339.4,386.8-343.5,376.6-342z"/>
			<path class="st1" d="M227.3-383.4c5.5,4.6,10.7,12.5,11.4,22.8c1.1-10.2,3.2-18.1,8.2-24c0,0-6.3,3.1-8.6,9.2
				C235.4-380.7,227.3-383.4,227.3-383.4z"/>
			<path class="st1" d="M213.3-434.2c1.2,6,6.3,11.2,12.9,13.7c-2.7-7-1.7-13.8,2.2-19.8c-0.9,7.8,1.5,13.2,5.8,18
				c-1.4-4.8-1.2-9.3,1.1-13.9c-0.9,8.5,6.2,12.8,15.6,18.4c12.7,7.6,17.3,16,19.2,27.2c-3.5-6.9-9.9-13.1-27.9-17.3
				C220-412.9,211.9-420.2,213.3-434.2z"/>
			
				<linearGradient id="SVGID_10_" gradientUnits="userSpaceOnUse" x1="-46715.0938" y1="-59935.6836" x2="-46738.3906" y2="-59927.7461" gradientTransform="matrix(1 0 0 -1 46931.6836 -60280.9766)">
				<stop  offset="0.2331" style="stop-color:#FAA61A"/>
				<stop  offset="0.7607" style="stop-color:#FFC20E"/>
			</linearGradient>
			<path class="st12" d="M213.6-342c-4.7-4.6-6.9-12.2-7.3-21.7c-0.5-12.5-5.4-17.7-13.3-18.5c11.8,4.6,4.4,17.1,7.9,25.8
				c-6.4-4.8-4.4-20.7-17.6-21.4c9.8,3.2,2.8,16.7,9.3,24.5c-7.8-0.1-11.4,6.1-21.5,3.2c4.7,3.6,10,5.9,18.8,5.9
				c-6.3,3.9-9,8.6-11.3,15.3C188.7-339.4,203.4-343.5,213.6-342z"/>
			<path class="st1" d="M362.9-383.4c-5.5,4.6-10.7,12.5-11.4,22.8c-1.1-10.2-3.2-18.1-8.2-24c0,0,6.3,3.1,8.6,9.2
				C354.8-380.7,362.9-383.4,362.9-383.4z"/>
			<path class="st1" d="M376.9-434.2c-1.2,6-6.3,11.2-12.9,13.7c2.7-7,1.7-13.8-2.2-19.8c0.9,7.8-1.5,13.2-5.8,18
				c1.4-4.8,1.2-9.3-1.1-13.9c0.9,8.5-6.2,12.8-15.6,18.4c-12.7,7.6-17.3,16-19.3,27.2c3.5-6.9,9.9-13.1,27.9-17.3
				C370.3-412.9,378.4-420.2,376.9-434.2z"/>
			
				<linearGradient id="SVGID_11_" gradientUnits="userSpaceOnUse" x1="-46607.6016" y1="-59879.8633" x2="-46607.6016" y2="-59851.7539" gradientTransform="matrix(1 0 0 -1 46931.6836 -60280.9766)">
				<stop  offset="0.2331" style="stop-color:#FAA61A"/>
				<stop  offset="0.7607" style="stop-color:#FFC20E"/>
			</linearGradient>
			<path class="st13" d="M350-436.1c-2.6,13.8-25.4,16.3-30.3,34.1c-3.8-19.1-21.3-19.9-21.5-33.1c3.2,7.8,10.8,5.8,15.9,12.1
				c-0.8-6.2-4.6-11.9-12.4-15.1c7.7-1.1,15.6,1.8,19.1,9.6c2.6-4.2,2.8-8.4,0.7-13.9c4.7,3.6,7.5,9.3,5.7,16.6
				C334.4-433.2,345-429.1,350-436.1z"/>
			<path class="st1" d="M227.3-246.4c5.5-4.6,10.7-12.5,11.4-22.8c1.1,10.2,3.2,18.1,8.2,24c0,0-6.3-3.1-8.6-9.2
				C235.4-249.1,227.3-246.4,227.3-246.4z"/>
			<path class="st1" d="M213.3-195.5c1.2-6,6.3-11.2,12.9-13.7c-2.7,7-1.7,13.8,2.2,19.8c-0.9-7.8,1.5-13.2,5.8-18
				c-1.4,4.8-1.2,9.3,1.1,13.9c-0.9-8.5,6.2-12.8,15.6-18.4c12.7-7.6,17.3-16,19.2-27.2c-3.5,6.9-9.9,13.1-27.9,17.3
				C220-216.8,211.9-209.6,213.3-195.5z"/>
			
				<radialGradient id="SVGID_12_" cx="-46636.5664" cy="-59966.1133" r="133.4365" gradientTransform="matrix(1 0 0 -1 46931.6836 -60280.9766)" gradientUnits="userSpaceOnUse">
				<stop  offset="0.3479" style="stop-color:#58AB40"/>
				<stop  offset="0.7607" style="stop-color:#80C342"/>
			</radialGradient>
			<path class="st14" d="M331-307.6c29.4,4,46.2,20.8,49.1,36.6c-3.9-9.3-13-15.2-23.6-18.6c10.6,14,7.2,31.9,21.1,41.7
				c-10.4-11-7.2-24.5-14.9-36.7c12.3,6.9,14.1,16.7,17,27.1c4.4,15.8,11.5,20.1,17.2,22.2c-11.7,0.5-28.7-4.5-36.8-20.1
				c-8.6-16.5-1.4-34.4-22.5-43.8c9.6,8.1,14.7,19.5,8.7,34.4c2.3-21.9-20.6-25.5-24.3-40.5c-0.6,11.5,7.2,21.2,14.5,25.9
				c-10.3-3.4-19.2-9-23.4-21.8c-6.9,21.4,5.3,38.5,12.9,38.5c2.6,0,4.5-1.7,4.5-4.2c0-6.4-11.6-6.4-14.6-18.9
				c5.3,10.8,25.5,8.9,25.5,20.8c0,9.7-13.6,14-22.4,8c6.4,8.3,21.3,8.6,25.6-1.4c0.7,4.3-1.3,10.8-7.5,13.1
				c-7,2.7-13.5-2.5-13.5-2.5c7.6,11,20.9,3.7,34.1,3.9c10.9,0.2,18.1,5.8,21.3,11.2c-3-1.5-4.6-1.9-7.6-2c6.3,3.9,10.8,12.8,9,21.5
				c-1.3-6.2-8.6-10.7-22.4-11.6c-15.6-1.1-23.8-3.6-29.1-9.3c11.2,5,28.9-1.9,41,6c-7.5-8.5-23.9-6.1-35.7-8
				c-20.7-3.3-33.3-38.3-31.7-53.6c-5.7,23.4,9.5,36.2,12.8,49.1c3.6,14.1-3.4,23.8-9.9,28.8c10.3-15.4-7.4-24.6-4.6-44.4
				c-5.2,19.2,4.4,24.7,4.4,34.6c0,9.8-8.6,13-10.3,25.5c-1.7-12.6-10.3-15.8-10.3-25.5c0-9.9,9.7-15.4,4.4-34.6
				c2.8,19.7-14.9,29-4.6,44.4c-6.6-5-13.6-14.7-9.9-28.8c3.3-12.9,18.4-25.7,12.8-49.1c1.6,15.3-11,50.3-31.7,53.6
				c-11.8,1.9-28.3-0.6-35.7,8c12-7.9,29.8-1.1,41-6c-5.3,5.7-13.5,8.2-29.1,9.3c-13.8,1-21.1,5.4-22.4,11.6
				c-1.8-8.7,2.8-17.6,9-21.5c-3,0.1-4.7,0.5-7.6,2c3.2-5.4,10.4-11,21.3-11.2c13.1-0.2,26.4,7.1,34.1-3.9c0,0-6.5,5.2-13.5,2.5
				c-6.1-2.4-8.1-8.8-7.5-13.1c4.3,10,19.2,9.8,25.5,1.4c-8.7,6.1-22.4,1.8-22.4-8c0-11.9,20.2-9.9,25.6-20.8
				c-3,12.4-14.6,12.4-14.6,18.9c0,2.5,1.9,4.2,4.5,4.2c7.6,0,19.8-17.1,12.9-38.5c-4.2,12.8-13.1,18.5-23.4,21.8
				c7.4-4.7,15.2-14.4,14.5-25.9c-3.7,14.9-26.6,18.5-24.3,40.5c-6-14.9-0.9-26.4,8.7-34.4c-21,9.4-13.9,27.3-22.5,43.8
				c-8.1,15.6-25.1,20.6-36.8,20.1c5.7-2.1,12.8-6.3,17.2-22.2c2.9-10.5,4.8-20.3,17-27.1c-7.7,12.3-4.5,25.7-14.9,36.7
				c13.9-9.8,10.5-27.7,21.1-41.7c-10.6,3.4-19.7,9.4-23.6,18.6c2.9-15.8,19.7-32.5,49.1-36.6c-30.3-1.3-36.2,15.6-51.5,16.2
				c-9.7,0.4-18.1-8.4-28-13.7c12.1,3.1,31.1,11.3,41.2-2.1c0,0-6.2,5.3-18.3,3.7c-12.3-1.6-23.5-9.4-54.1-11.4
				c30.7-2,41.8-9.8,54.1-11.4c12.1-1.5,18.3,3.7,18.3,3.7c-10.1-13.5-29.1-5.2-41.2-2.1c9.9-5.3,18.4-14.1,28-13.7
				c15.3,0.6,21.1,17.5,51.5,16.2c-29.4-4-46.2-20.8-49.1-36.5c3.9,9.2,13,15.2,23.6,18.6c-10.6-14-7.2-31.9-21.1-41.7
				c10.4,11,7.2,24.5,14.9,36.7c-12.3-6.9-14.1-16.7-17-27.1c-4.4-15.8-11.5-20.1-17.2-22.2c11.7-0.4,28.7,4.5,36.8,20.1
				c8.6,16.5,1.4,34.4,22.5,43.8c-9.6-8.1-14.7-19.5-8.7-34.4c-2.3,21.9,20.6,25.5,24.3,40.5c0.6-11.5-7.2-21.2-14.5-25.9
				c10.3,3.4,19.2,9,23.4,21.8c6.9-21.4-5.3-38.5-12.9-38.5c-2.6,0-4.5,1.7-4.5,4.2c0,6.5,11.6,6.5,14.6,18.9
				c-5.3-10.8-25.6-8.9-25.6-20.8c0-9.7,13.6-14,22.4-8c-6.4-8.3-21.3-8.6-25.5,1.4c-0.7-4.3,1.3-10.8,7.5-13.1
				c7-2.7,13.5,2.5,13.5,2.5c-7.6-11-20.9-3.7-34.1-3.9c-10.9-0.2-18.1-5.8-21.3-11.2c3,1.5,4.6,1.9,7.6,2
				c-6.3-3.9-10.8-12.8-9-21.5c1.3,6.2,8.6,10.7,22.4,11.6c15.6,1.1,23.8,3.6,29.1,9.3c-11.2-5-28.9,1.9-41-6
				c7.5,8.5,23.9,6.1,35.7,8c20.7,3.3,33.3,38.3,31.7,53.6c5.7-23.4-9.5-36.2-12.8-49.1c-3.6-14.1,3.4-23.8,9.9-28.8
				c-10.3,15.4,7.4,24.6,4.6,44.4c5.2-19.2-4.4-24.7-4.4-34.6c0-9.8,8.6-13,10.3-25.5c1.7,12.6,10.3,15.8,10.3,25.5
				c0,9.9-9.7,15.4-4.4,34.6c-2.8-19.7,14.9-29,4.6-44.4c6.6,5,13.6,14.7,9.9,28.8c-3.3,12.9-18.4,25.7-12.8,49.1
				c-1.6-15.3,11-50.3,31.7-53.6c11.8-1.9,28.3,0.6,35.7-8c-12.1,7.9-29.8,1.1-41,6c5.3-5.7,13.5-8.2,29.1-9.3
				c13.8-1,21.1-5.4,22.4-11.6c1.8,8.7-2.8,17.6-9,21.5c3-0.1,4.7-0.5,7.6-2c-3.2,5.4-10.4,11-21.3,11.2
				c-13.1,0.2-26.4-7.1-34.1,3.9c0,0,6.5-5.2,13.5-2.5c6.1,2.4,8.1,8.8,7.5,13.1c-4.3-10-19.2-9.8-25.6-1.4c8.7-6.1,22.4-1.8,22.4,8
				c0,11.9-20.2,9.9-25.5,20.8c3-12.4,14.6-12.4,14.6-18.9c0-2.5-1.9-4.2-4.5-4.2c-7.6,0-19.8,17.1-12.9,38.5
				c4.2-12.8,13.1-18.5,23.4-21.8c-7.4,4.7-15.2,14.4-14.5,25.9c3.7-14.9,26.6-18.5,24.3-40.5c6,14.9,0.9,26.4-8.7,34.4
				c21-9.4,13.9-27.3,22.5-43.8c8.1-15.6,25.1-20.6,36.8-20.1c-5.7,2.1-12.8,6.3-17.2,22.2c-2.9,10.5-4.8,20.3-17,27.1
				c7.7-12.3,4.5-25.7,14.9-36.7c-13.9,9.8-10.5,27.7-21.1,41.7c10.6-3.4,19.7-9.4,23.6-18.6c-2.9,15.8-19.7,32.5-49.1,36.5
				c30.3,1.3,36.2-15.6,51.5-16.2c9.7-0.4,18.1,8.4,28,13.7c-12.1-3.1-31.1-11.3-41.2,2.1c0,0,6.2-5.3,18.3-3.7
				c12.3,1.6,23.5,9.4,54.1,11.4c-30.7,2-41.8,9.8-54.1,11.4c-12.1,1.5-18.3-3.7-18.3-3.7c10.1,13.5,29.1,5.2,41.2,2.1
				c-9.9,5.3-18.4,14.1-28,13.7C367.1-292,361.3-308.9,331-307.6z M364.3-314.9c4.6,1.2,8.6,3.8,14.5,3.8c7.1,0,11.1-2.8,16.7-3.8
				c-5.7-1-9.6-3.8-16.7-3.8C372.9-318.6,368.9-316.1,364.3-314.9z M292.1-405.2c0,5.1,3,8.4,3,12.1c0-3.7,3-7,3-12.1
				c0-4.6-2.3-6.7-3-11.4C294.3-411.8,292.1-409.7,292.1-405.2z M225.9-314.9c-4.6-1.2-8.6-3.8-14.5-3.8c-7.1,0-11.1,2.8-16.7,3.8
				c5.7,1,9.6,3.8,16.7,3.8C217.3-311.1,221.3-313.6,225.9-314.9z M298.1-224.5c0-5.1-3-8.4-3-12.1c0,3.7-3,7-3,12.1
				c0,4.6,2.2,6.7,3,11.4C295.9-217.9,298.1-220,298.1-224.5z M340.2-314.9c-9.9,0-24.1-5-35-3c3.4-2.1,5-3.7,7.5-6.7
				c-4.4,0.4-6.8,0.8-10.1,2.3c2.7-6,3.2-9.4,3.7-15.4c-3.1,3.6-4.6,5.7-6.6,10.6c0.7-12.4-4.3-15.2-4.6-31.8
				c-0.4,16.5-5.3,19.3-4.6,31.8c-1.9-4.9-3.5-7.1-6.6-10.6c0.5,6,1.1,9.4,3.7,15.4c-3.4-1.5-5.7-1.9-10.1-2.3
				c2.5,3.1,4,4.6,7.5,6.7c-10.9-2-25,3-35,3c9.9,0,24.1,5,35,3c-3.4,2.1-5,3.7-7.5,6.7c4.4-0.4,6.8-0.8,10.1-2.3
				c-2.7,6-3.2,9.4-3.7,15.4c3.1-3.6,4.6-5.7,6.6-10.6c-0.7,12.4,4.3,15.2,4.6,31.8c0.4-16.5,5.3-19.3,4.6-31.8
				c1.9,4.9,3.5,7.1,6.6,10.6c-0.5-6-1.1-9.4-3.7-15.4c3.4,1.5,5.7,1.9,10.1,2.3c-2.5-3.1-4-4.6-7.5-6.7
				C316.1-309.9,330.2-314.9,340.2-314.9z"/>
			<path class="st1" d="M362.9-246.4c-5.5-4.6-10.7-12.5-11.4-22.8c-1.1,10.2-3.2,18.1-8.2,24c0,0,6.3-3.1,8.6-9.2
				C354.8-249.1,362.9-246.4,362.9-246.4z"/>
			<path class="st1" d="M376.9-195.5c-1.2-6-6.3-11.2-12.9-13.7c2.7,7,1.7,13.8-2.2,19.8c0.9-7.8-1.5-13.2-5.8-18
				c1.4,4.8,1.2,9.3-1.1,13.9c0.9-8.5-6.2-12.8-15.6-18.4c-12.7-7.6-17.3-16-19.3-27.2c3.5,6.9,9.9,13.1,27.9,17.3
				C370.3-216.8,378.4-209.6,376.9-195.5z"/>
			
				<linearGradient id="SVGID_13_" gradientUnits="userSpaceOnUse" x1="62982.4648" y1="43525.3281" x2="62959.168" y2="43533.2656" gradientTransform="matrix(-1 0 0 1 63356.1094 -43809.7578)">
				<stop  offset="0.2331" style="stop-color:#FAA61A"/>
				<stop  offset="0.7607" style="stop-color:#FFC20E"/>
			</linearGradient>
			<path class="st15" d="M376.6-287.7c4.7,4.6,6.9,12.2,7.3,21.7c0.5,12.5,5.4,17.7,13.3,18.5c-11.8-4.6-4.4-17.1-7.9-25.8
				c6.4,4.8,4.4,20.7,17.6,21.4c-9.8-3.2-2.8-16.7-9.3-24.5c7.8,0.1,11.4-6.1,21.5-3.2c-4.7-3.6-10-5.9-18.8-5.9
				c6.3-3.9,9-8.6,11.3-15.3C401.5-290.3,386.8-286.2,376.6-287.7z"/>
			
				<linearGradient id="SVGID_14_" gradientUnits="userSpaceOnUse" x1="-46715.0938" y1="43525.3281" x2="-46738.3906" y2="43533.2656" gradientTransform="matrix(1 0 0 1 46931.6836 -43809.7578)">
				<stop  offset="0.2331" style="stop-color:#FAA61A"/>
				<stop  offset="0.7607" style="stop-color:#FFC20E"/>
			</linearGradient>
			<path class="st16" d="M213.6-287.7c-4.7,4.6-6.9,12.2-7.3,21.7c-0.5,12.5-5.4,17.7-13.3,18.5c11.8-4.6,4.4-17.1,7.9-25.8
				c-6.4,4.8-4.4,20.7-17.6,21.4c9.8-3.2,2.8-16.7,9.3-24.5c-7.8,0.1-11.4-6.1-21.5-3.2c4.7-3.6,10-5.9,18.8-5.9
				c-6.3-3.9-9-8.6-11.3-15.3C188.7-290.3,203.4-286.2,213.6-287.7z"/>
			
				<linearGradient id="SVGID_15_" gradientUnits="userSpaceOnUse" x1="63089.957" y1="-59879.8633" x2="63089.957" y2="-59851.7539" gradientTransform="matrix(-1 0 0 -1 63356.1094 -60280.9766)">
				<stop  offset="0.2331" style="stop-color:#FAA61A"/>
				<stop  offset="0.7607" style="stop-color:#FFC20E"/>
			</linearGradient>
			<path class="st17" d="M240.2-436.1c2.6,13.8,25.4,16.3,30.3,34.1c3.8-19.1,21.3-19.9,21.5-33.1c-3.2,7.8-10.8,5.8-15.9,12.1
				c0.8-6.2,4.6-11.9,12.4-15.1c-7.7-1.1-15.6,1.8-19.1,9.6c-2.6-4.2-2.8-8.4-0.7-13.9c-4.7,3.6-7.5,9.3-5.7,16.6
				C255.9-433.2,245.2-429.1,240.2-436.1z"/>
			<path class="st5" d="M313.3-314.9c-4.3-0.7-9.4-3.2-14.1-1.2c2.3-1.8,1.1-3.5,2.5-5.2c-1.9,1.4-3.5,0.5-5,2.7
				c1.5-5.3-0.5-8.1-1.6-14.1c-1.1,6-3.2,8.8-1.6,14.1c-1.5-2.2-3.1-1.4-5-2.7c1.4,1.7,0.2,3.4,2.5,5.2c-4.7-2-9.9,0.6-14.1,1.2
				c4.3,0.7,9.4,3.2,14.1,1.2c-2.3,1.8-1.1,3.5-2.5,5.2c1.9-1.4,3.5-0.5,5-2.7c-1.5,5.3,0.5,8.1,1.6,14.1c1.1-6,3.2-8.8,1.6-14.1
				c1.5,2.2,3.1,1.4,5,2.7c-1.4-1.7-0.2-3.4-2.5-5.2C303.9-311.7,309.1-314.2,313.3-314.9z"/>
		</g>
		<g>
			
				<linearGradient id="SVGID_16_" gradientUnits="userSpaceOnUse" x1="62877.3984" y1="43370.625" x2="62877.3984" y2="43398.7305" gradientTransform="matrix(-1 0 0 1 63292.1094 -43795.2188)">
				<stop  offset="0.2331" style="stop-color:#FAA61A"/>
				<stop  offset="0.7607" style="stop-color:#FFC20E"/>
			</linearGradient>
			<path class="st18" d="M388.8-389.6c2.6-13.8,25.4-16.3,30.3-34.1c3.8,19.1,21.3,19.9,21.5,33.1c-3.2-7.8-10.8-5.8-15.9-12.1
				c0.8,6.2,4.6,11.9,12.4,15.1c-7.7,1.1-15.6-1.8-19.1-9.6c-2.6,4.2-2.8,8.4-0.7,13.9c-4.7-3.6-7.5-9.3-5.7-16.6
				C404.4-392.5,393.8-396.6,388.8-389.6z"/>
			<path class="st1" d="M375.9-442.3c5.5-4.6,10.7-12.5,11.4-22.8c1.1,10.2,3.2,18.1,8.2,24c0,0-6.3-3.1-8.6-9.2
				C384-445,375.9-442.3,375.9-442.3z"/>
			<path class="st1" d="M361.9-391.5c1.2-6,6.3-11.2,12.9-13.7c-2.7,7-1.7,13.8,2.2,19.8c-0.9-7.8,1.5-13.2,5.8-18
				c-1.4,4.8-1.2,9.3,1.1,13.9c-0.9-8.5,6.2-12.8,15.6-18.4c12.7-7.6,17.3-16,19.2-27.2c-3.5,6.9-9.9,13.1-27.9,17.3
				C368.5-412.8,360.4-405.5,361.9-391.5z"/>
			
				<radialGradient id="SVGID_17_" cx="-46488.0078" cy="-59770.1289" r="133.4365" gradientTransform="matrix(1 0 0 -1 46931.6836 -60280.9766)" gradientUnits="userSpaceOnUse">
				<stop  offset="0.3479" style="stop-color:#58AB40"/>
				<stop  offset="0.7607" style="stop-color:#80C342"/>
			</radialGradient>
			<path class="st19" d="M479.5-503.6c29.4,4,46.2,20.8,49.1,36.6c-3.9-9.3-13-15.2-23.6-18.6c10.6,14,7.2,31.9,21.1,41.7
				c-10.4-11-7.2-24.5-14.9-36.7c12.3,6.9,14.1,16.7,17,27.1c4.4,15.8,11.5,20.1,17.2,22.2c-11.7,0.5-28.7-4.5-36.8-20.1
				c-8.6-16.5-1.4-34.4-22.5-43.8c9.6,8.1,14.7,19.5,8.7,34.4c2.3-21.9-20.6-25.5-24.3-40.5c-0.6,11.5,7.2,21.2,14.5,25.9
				c-10.3-3.4-19.2-9-23.4-21.8c-6.9,21.4,5.3,38.5,12.9,38.5c2.6,0,4.5-1.7,4.5-4.2c0-6.4-11.6-6.4-14.6-18.9
				c5.3,10.8,25.5,8.9,25.5,20.8c0,9.7-13.6,14-22.4,8c6.4,8.3,21.3,8.6,25.6-1.4c0.7,4.3-1.3,10.8-7.5,13.1
				c-7,2.7-13.5-2.5-13.5-2.5c7.6,11,20.9,3.7,34.1,3.9c10.9,0.2,18.1,5.8,21.3,11.2c-3-1.5-4.6-1.9-7.6-2c6.3,3.9,10.8,12.8,9,21.5
				c-1.3-6.2-8.6-10.7-22.4-11.6c-15.6-1.1-23.8-3.6-29.1-9.3c11.2,5,28.9-1.9,41,6c-7.5-8.5-23.9-6.1-35.7-8
				c-20.7-3.3-33.3-38.3-31.7-53.6c-5.7,23.4,9.5,36.2,12.8,49.1c3.6,14.1-3.4,23.8-9.9,28.8c10.3-15.4-7.4-24.6-4.6-44.4
				c-5.2,19.2,4.4,24.7,4.4,34.6c0,9.8-8.6,13-10.3,25.5c-1.7-12.6-10.3-15.8-10.3-25.5c0-9.9,9.7-15.4,4.4-34.6
				c2.8,19.7-14.9,29-4.6,44.4c-6.6-5-13.6-14.7-9.9-28.8c3.3-12.9,18.4-25.7,12.8-49.1c1.6,15.3-11,50.3-31.7,53.6
				c-11.8,1.9-28.3-0.6-35.7,8c12-7.9,29.8-1.1,41-6c-5.3,5.7-13.5,8.2-29.1,9.3c-13.8,1-21.1,5.4-22.4,11.6
				c-1.8-8.7,2.8-17.6,9-21.5c-3,0.1-4.7,0.5-7.6,2c3.2-5.4,10.4-11,21.3-11.2c13.1-0.2,26.4,7.1,34.1-3.9c0,0-6.5,5.2-13.5,2.5
				c-6.1-2.4-8.1-8.8-7.5-13.1c4.3,10,19.2,9.8,25.5,1.4c-8.7,6.1-22.4,1.8-22.4-8c0-11.9,20.2-9.9,25.6-20.8
				c-3,12.4-14.6,12.4-14.6,18.9c0,2.5,1.9,4.2,4.5,4.2c7.6,0,19.8-17.1,12.9-38.5c-4.2,12.8-13.1,18.5-23.4,21.8
				c7.4-4.7,15.2-14.4,14.5-25.9c-3.7,14.9-26.6,18.5-24.3,40.5c-6-14.9-0.9-26.4,8.7-34.4c-21,9.4-13.9,27.3-22.5,43.8
				c-8.1,15.6-25.1,20.6-36.8,20.1c5.7-2.1,12.8-6.3,17.2-22.2c2.9-10.5,4.8-20.3,17-27.1c-7.7,12.3-4.5,25.7-14.9,36.7
				c13.9-9.8,10.5-27.7,21.1-41.7c-10.6,3.4-19.7,9.4-23.6,18.6c2.9-15.8,19.7-32.5,49.1-36.6c-30.3-1.3-36.2,15.6-51.5,16.2
				c-9.7,0.4-18.1-8.4-28-13.7c12.1,3.1,31.1,11.3,41.2-2.1c0,0-6.2,5.3-18.3,3.7c-12.3-1.6-23.5-9.4-54.1-11.4
				c30.7-2,41.8-9.8,54.1-11.4c12.1-1.5,18.3,3.7,18.3,3.7c-10.1-13.5-29.1-5.2-41.2-2.1c9.9-5.3,18.4-14.1,28-13.7
				c15.3,0.6,21.1,17.5,51.5,16.2c-29.4-4-46.2-20.8-49.1-36.5c3.9,9.2,13,15.2,23.6,18.6c-10.6-14-7.2-31.9-21.1-41.7
				c10.4,11,7.2,24.5,14.9,36.7c-12.3-6.9-14.1-16.7-17-27.1c-4.4-15.8-11.5-20.1-17.2-22.2c11.7-0.4,28.7,4.5,36.8,20.1
				c8.6,16.5,1.4,34.4,22.5,43.8c-9.6-8.1-14.7-19.5-8.7-34.4c-2.3,21.9,20.6,25.5,24.3,40.5c0.6-11.5-7.2-21.2-14.5-25.9
				c10.3,3.4,19.2,9,23.4,21.8c6.9-21.4-5.3-38.5-12.9-38.5c-2.6,0-4.5,1.7-4.5,4.2c0,6.5,11.6,6.5,14.6,18.9
				c-5.3-10.8-25.6-8.9-25.6-20.8c0-9.7,13.6-14,22.4-8c-6.4-8.3-21.3-8.6-25.5,1.4c-0.7-4.3,1.3-10.8,7.5-13.1
				c7-2.7,13.5,2.5,13.5,2.5c-7.6-11-20.9-3.7-34.1-3.9c-10.9-0.2-18.1-5.8-21.3-11.2c3,1.5,4.6,1.9,7.6,2
				c-6.3-3.9-10.8-12.8-9-21.5c1.3,6.2,8.6,10.7,22.4,11.6c15.6,1.1,23.8,3.6,29.1,9.3c-11.2-5-28.9,1.9-41-6
				c7.5,8.5,23.9,6.1,35.7,8c20.7,3.3,33.3,38.3,31.7,53.6c5.7-23.4-9.5-36.2-12.8-49.1c-3.6-14.1,3.4-23.8,9.9-28.8
				c-10.3,15.4,7.4,24.6,4.6,44.4c5.2-19.2-4.4-24.7-4.4-34.6c0-9.8,8.6-13,10.3-25.5c1.7,12.6,10.3,15.8,10.3,25.5
				c0,9.9-9.7,15.4-4.4,34.6c-2.8-19.7,14.9-29,4.6-44.4c6.6,5,13.6,14.7,9.9,28.8c-3.3,12.9-18.4,25.7-12.8,49.1
				c-1.6-15.3,11-50.3,31.7-53.6c11.8-1.9,28.3,0.6,35.7-8c-12.1,7.9-29.8,1.1-41,6c5.3-5.7,13.5-8.2,29.1-9.3
				c13.8-1,21.1-5.4,22.4-11.6c1.8,8.7-2.8,17.6-9,21.5c3-0.1,4.7-0.5,7.6-2c-3.2,5.4-10.4,11-21.3,11.2
				c-13.1,0.2-26.4-7.1-34.1,3.9c0,0,6.5-5.2,13.5-2.5c6.1,2.4,8.1,8.8,7.5,13.1c-4.3-10-19.2-9.8-25.6-1.4c8.7-6.1,22.4-1.8,22.4,8
				c0,11.9-20.2,9.9-25.5,20.8c3-12.4,14.6-12.4,14.6-18.9c0-2.5-1.9-4.2-4.5-4.2c-7.6,0-19.8,17.1-12.9,38.5
				c4.2-12.8,13.1-18.5,23.4-21.8c-7.4,4.7-15.2,14.4-14.5,25.9c3.7-14.9,26.6-18.5,24.3-40.5c6,14.9,0.9,26.4-8.7,34.4
				c21-9.4,13.9-27.3,22.5-43.8c8.1-15.6,25.1-20.6,36.8-20.1c-5.7,2.1-12.8,6.3-17.2,22.2c-2.9,10.5-4.8,20.3-17,27.1
				c7.7-12.3,4.5-25.7,14.9-36.7c-13.9,9.8-10.5,27.7-21.1,41.7c10.6-3.4,19.7-9.4,23.6-18.6c-2.9,15.8-19.7,32.5-49.1,36.5
				c30.3,1.3,36.2-15.6,51.5-16.2c9.7-0.4,18.1,8.4,28,13.7c-12.1-3.1-31.1-11.3-41.2,2.1c0,0,6.2-5.3,18.3-3.7
				c12.3,1.6,23.5,9.4,54.1,11.4c-30.7,2-41.8,9.8-54.1,11.4c-12.1,1.5-18.3-3.7-18.3-3.7c10.1,13.5,29.1,5.2,41.2,2.1
				c-9.9,5.3-18.4,14.1-28,13.7C515.7-488,509.8-504.9,479.5-503.6z M512.9-510.8c4.6,1.2,8.6,3.8,14.5,3.8c7.1,0,11.1-2.8,16.7-3.8
				c-5.7-1-9.6-3.8-16.7-3.8C521.5-514.6,517.5-512.1,512.9-510.8z M440.7-601.2c0,5.1,3,8.4,3,12.1c0-3.7,3-7,3-12.1
				c0-4.6-2.3-6.7-3-11.4C442.9-607.8,440.7-605.7,440.7-601.2z M374.5-510.8c-4.6-1.2-8.6-3.8-14.5-3.8c-7.1,0-11.1,2.8-16.7,3.8
				c5.7,1,9.6,3.8,16.7,3.8C365.8-507.1,369.9-509.6,374.5-510.8z M446.7-420.5c0-5.1-3-8.4-3-12.1c0,3.7-3,7-3,12.1
				c0,4.6,2.2,6.7,3,11.4C444.4-413.9,446.7-416,446.7-420.5z M488.7-510.8c-9.9,0-24.1-5-35-3c3.4-2.1,5-3.7,7.5-6.7
				c-4.4,0.4-6.8,0.8-10.1,2.3c2.7-6,3.2-9.4,3.7-15.4c-3.1,3.6-4.6,5.7-6.6,10.6c0.7-12.4-4.3-15.2-4.6-31.8
				c-0.4,16.5-5.3,19.3-4.6,31.8c-1.9-4.9-3.5-7.1-6.6-10.6c0.5,6,1.1,9.4,3.7,15.4c-3.4-1.5-5.7-1.9-10.1-2.3
				c2.5,3.1,4,4.6,7.5,6.7c-10.9-2-25,3-35,3c9.9,0,24.1,5,35,3c-3.4,2.1-5,3.7-7.5,6.7c4.4-0.4,6.8-0.8,10.1-2.3
				c-2.7,6-3.2,9.4-3.7,15.4c3.1-3.6,4.6-5.7,6.6-10.6c-0.7,12.4,4.3,15.2,4.6,31.8c0.4-16.5,5.3-19.3,4.6-31.8
				c1.9,4.9,3.5,7.1,6.6,10.6c-0.5-6-1.1-9.4-3.7-15.4c3.4,1.5,5.7,1.9,10.1,2.3c-2.5-3.1-4-4.6-7.5-6.7
				C464.7-505.9,478.8-510.8,488.7-510.8z"/>
			
				<linearGradient id="SVGID_18_" gradientUnits="userSpaceOnUse" x1="-46566.5352" y1="43329.3438" x2="-46589.832" y2="43337.2813" gradientTransform="matrix(1 0 0 1 46931.6836 -43809.7578)">
				<stop  offset="0.2331" style="stop-color:#FAA61A"/>
				<stop  offset="0.7607" style="stop-color:#FFC20E"/>
			</linearGradient>
			<path class="st20" d="M362.1-483.7c-4.7,4.6-6.9,12.2-7.3,21.7c-0.5,12.5-5.4,17.7-13.3,18.5c11.8-4.6,4.4-17.1,7.9-25.8
				c-6.4,4.8-4.4,20.7-17.6,21.4c9.8-3.2,2.8-16.7,9.3-24.5c-7.8,0.1-11.4-6.1-21.5-3.2c4.7-3.6,10-5.9,18.8-5.9
				c-6.3-3.9-9-8.6-11.3-15.3C337.3-486.3,352-482.2,362.1-483.7z"/>
			<path class="st5" d="M461.9-510.8c-4.3-0.7-9.4-3.2-14.1-1.2c2.3-1.8,1.1-3.5,2.5-5.2c-1.9,1.4-3.5,0.5-5,2.7
				c1.5-5.3-0.5-8.1-1.6-14.1c-1.1,6-3.2,8.8-1.6,14.1c-1.5-2.2-3.1-1.4-5-2.7c1.4,1.7,0.2,3.4,2.5,5.2c-4.7-2-9.9,0.6-14.1,1.2
				c4.3,0.7,9.4,3.2,14.1,1.2c-2.3,1.8-1.1,3.5-2.5,5.2c1.9-1.4,3.5-0.5,5-2.7c-1.5,5.3,0.5,8.1,1.6,14.1c1.1-6,3.2-8.8,1.6-14.1
				c1.5,2.2,3.1,1.4,5,2.7c-1.4-1.7-0.2-3.4-2.5-5.2C452.5-507.6,457.6-510.2,461.9-510.8z"/>
		</g>
		<g>
			
				<linearGradient id="SVGID_19_" gradientUnits="userSpaceOnUse" x1="-46692.1602" y1="43370.625" x2="-46692.1602" y2="43398.7305" gradientTransform="matrix(1 0 0 1 46867.6836 -43795.2188)">
				<stop  offset="0.2331" style="stop-color:#FAA61A"/>
				<stop  offset="0.7607" style="stop-color:#FFC20E"/>
			</linearGradient>
			<path class="st21" d="M201.4-389.6c-2.6-13.8-25.4-16.3-30.3-34.1c-3.8,19.1-21.3,19.9-21.5,33.1c3.2-7.8,10.8-5.8,15.9-12.1
				c-0.8,6.2-4.6,11.9-12.4,15.1c7.7,1.1,15.6-1.8,19.1-9.6c2.6,4.2,2.8,8.4,0.7,13.9c4.7-3.6,7.5-9.3,5.7-16.6
				C185.8-392.5,196.5-396.6,201.4-389.6z"/>
			
				<radialGradient id="SVGID_20_" cx="-46785.125" cy="-59770.1289" r="133.4365" gradientTransform="matrix(1 0 0 -1 46931.6836 -60280.9766)" gradientUnits="userSpaceOnUse">
				<stop  offset="0.3479" style="stop-color:#58AB40"/>
				<stop  offset="0.7607" style="stop-color:#80C342"/>
			</radialGradient>
			<path class="st22" d="M182.4-503.6c29.4,4,46.2,20.8,49.1,36.6c-3.9-9.3-13-15.2-23.6-18.6c10.6,14,7.2,31.9,21.1,41.7
				c-10.4-11-7.2-24.5-14.9-36.7c12.3,6.9,14.1,16.7,17,27.1c4.4,15.8,11.5,20.1,17.2,22.2c-11.7,0.5-28.7-4.5-36.8-20.1
				c-8.6-16.5-1.4-34.4-22.5-43.8c9.6,8.1,14.7,19.5,8.7,34.4c2.3-21.9-20.6-25.5-24.3-40.5c-0.6,11.5,7.2,21.2,14.5,25.9
				c-10.3-3.4-19.2-9-23.4-21.8c-6.9,21.4,5.3,38.5,12.9,38.5c2.6,0,4.5-1.7,4.5-4.2c0-6.4-11.6-6.4-14.6-18.9
				c5.3,10.8,25.5,8.9,25.5,20.8c0,9.7-13.6,14-22.4,8c6.4,8.3,21.3,8.6,25.6-1.4c0.7,4.3-1.3,10.8-7.5,13.1
				c-7,2.7-13.5-2.5-13.5-2.5c7.6,11,20.9,3.7,34.1,3.9c10.9,0.2,18.1,5.8,21.3,11.2c-3-1.5-4.6-1.9-7.6-2c6.3,3.9,10.8,12.8,9,21.5
				c-1.3-6.2-8.6-10.7-22.4-11.6c-15.6-1.1-23.8-3.6-29.1-9.3c11.2,5,28.9-1.9,41,6c-7.5-8.5-23.9-6.1-35.7-8
				c-20.7-3.3-33.3-38.3-31.7-53.6c-5.7,23.4,9.5,36.2,12.8,49.1c3.6,14.1-3.4,23.8-9.9,28.8c10.3-15.4-7.4-24.6-4.6-44.4
				c-5.2,19.2,4.4,24.7,4.4,34.6c0,9.8-8.6,13-10.3,25.5c-1.7-12.6-10.3-15.8-10.3-25.5c0-9.9,9.7-15.4,4.4-34.6
				c2.8,19.7-14.9,29-4.6,44.4c-6.6-5-13.6-14.7-9.9-28.8c3.3-12.9,18.4-25.7,12.8-49.1c1.6,15.3-11,50.3-31.7,53.6
				c-11.8,1.9-28.3-0.6-35.7,8c12-7.9,29.8-1.1,41-6c-5.3,5.7-13.5,8.2-29.1,9.3c-13.8,1-21.1,5.4-22.4,11.6
				c-1.8-8.7,2.8-17.6,9-21.5c-3,0.1-4.7,0.5-7.6,2c3.2-5.4,10.4-11,21.3-11.2c13.1-0.2,26.4,7.1,34.1-3.9c0,0-6.5,5.2-13.5,2.5
				c-6.1-2.4-8.1-8.8-7.5-13.1c4.3,10,19.2,9.8,25.5,1.4c-8.7,6.1-22.4,1.8-22.4-8c0-11.9,20.2-9.9,25.6-20.8
				c-3,12.4-14.6,12.4-14.6,18.9c0,2.5,1.9,4.2,4.5,4.2c7.6,0,19.8-17.1,12.9-38.5c-4.2,12.8-13.1,18.5-23.4,21.8
				c7.4-4.7,15.2-14.4,14.5-25.9c-3.7,14.9-26.6,18.5-24.3,40.5c-6-14.9-0.9-26.4,8.7-34.4c-21,9.4-13.9,27.3-22.5,43.8
				c-8.1,15.6-25.1,20.6-36.8,20.1c5.7-2.1,12.8-6.3,17.2-22.2c2.9-10.5,4.8-20.3,17-27.1c-7.7,12.3-4.5,25.7-14.9,36.7
				c13.9-9.8,10.5-27.7,21.1-41.7c-10.6,3.4-19.7,9.4-23.6,18.6c2.9-15.8,19.7-32.5,49.1-36.6c-30.3-1.3-36.2,15.6-51.5,16.2
				c-9.7,0.4-18.1-8.4-28-13.7c12.1,3.1,31.1,11.3,41.2-2.1c0,0-6.2,5.3-18.3,3.7C41.8-501,30.7-508.9,0-510.8
				c30.7-2,41.8-9.8,54.1-11.4c12.1-1.5,18.3,3.7,18.3,3.7c-10.1-13.5-29.1-5.2-41.2-2.1c9.9-5.3,18.4-14.1,28-13.7
				c15.3,0.6,21.1,17.5,51.5,16.2c-29.4-4-46.2-20.8-49.1-36.5c3.9,9.2,13,15.2,23.6,18.6c-10.6-14-7.2-31.9-21.1-41.7
				c10.4,11,7.2,24.5,14.9,36.7c-12.3-6.9-14.1-16.7-17-27.1c-4.4-15.8-11.5-20.1-17.2-22.2c11.7-0.4,28.7,4.5,36.8,20.1
				c8.6,16.5,1.4,34.4,22.5,43.8c-9.6-8.1-14.7-19.5-8.7-34.4c-2.3,21.9,20.6,25.5,24.3,40.5c0.6-11.5-7.2-21.2-14.5-25.9
				c10.3,3.4,19.2,9,23.4,21.8c6.9-21.4-5.3-38.5-12.9-38.5c-2.6,0-4.5,1.7-4.5,4.2c0,6.5,11.6,6.5,14.6,18.9
				c-5.3-10.8-25.6-8.9-25.6-20.8c0-9.7,13.6-14,22.4-8c-6.4-8.3-21.3-8.6-25.5,1.4c-0.7-4.3,1.3-10.8,7.5-13.1
				c7-2.7,13.5,2.5,13.5,2.5c-7.6-11-20.9-3.7-34.1-3.9c-10.9-0.2-18.1-5.8-21.3-11.2c3,1.5,4.6,1.9,7.6,2
				c-6.3-3.9-10.8-12.8-9-21.5c1.3,6.2,8.6,10.7,22.4,11.6c15.6,1.1,23.8,3.6,29.1,9.3c-11.2-5-28.9,1.9-41-6
				c7.5,8.5,23.9,6.1,35.7,8c20.7,3.3,33.3,38.3,31.7,53.6c5.7-23.4-9.5-36.2-12.8-49.1c-3.6-14.1,3.4-23.8,9.9-28.8
				c-10.3,15.4,7.4,24.6,4.6,44.4c5.2-19.2-4.4-24.7-4.4-34.6c0-9.8,8.6-13,10.3-25.5c1.7,12.6,10.3,15.8,10.3,25.5
				c0,9.9-9.7,15.4-4.4,34.6c-2.8-19.7,14.9-29,4.6-44.4c6.6,5,13.6,14.7,9.9,28.8c-3.3,12.9-18.4,25.7-12.8,49.1
				c-1.6-15.3,11-50.3,31.7-53.6c11.8-1.9,28.3,0.6,35.7-8c-12.1,7.9-29.8,1.1-41,6c5.3-5.7,13.5-8.2,29.1-9.3
				c13.8-1,21.1-5.4,22.4-11.6c1.8,8.7-2.8,17.6-9,21.5c3-0.1,4.7-0.5,7.6-2c-3.2,5.4-10.4,11-21.3,11.2
				c-13.1,0.2-26.4-7.1-34.1,3.9c0,0,6.5-5.2,13.5-2.5c6.1,2.4,8.1,8.8,7.5,13.1c-4.3-10-19.2-9.8-25.6-1.4c8.7-6.1,22.4-1.8,22.4,8
				c0,11.9-20.2,9.9-25.5,20.8c3-12.4,14.6-12.4,14.6-18.9c0-2.5-1.9-4.2-4.5-4.2c-7.6,0-19.8,17.1-12.9,38.5
				c4.2-12.8,13.1-18.5,23.4-21.8c-7.4,4.7-15.2,14.4-14.5,25.9c3.7-14.9,26.6-18.5,24.3-40.5c6,14.9,0.9,26.4-8.7,34.4
				c21-9.4,13.9-27.3,22.5-43.8c8.1-15.6,25.1-20.6,36.8-20.1c-5.7,2.1-12.8,6.3-17.2,22.2c-2.9,10.5-4.8,20.3-17,27.1
				c7.7-12.3,4.5-25.7,14.9-36.7c-13.9,9.8-10.5,27.7-21.1,41.7c10.6-3.4,19.7-9.4,23.6-18.6c-2.9,15.8-19.7,32.5-49.1,36.5
				c30.3,1.3,36.2-15.6,51.5-16.2c9.7-0.4,18.1,8.4,28,13.7c-12.1-3.1-31.1-11.3-41.2,2.1c0,0,6.2-5.3,18.3-3.7
				c12.3,1.6,23.5,9.4,54.1,11.4c-30.7,2-41.8,9.8-54.1,11.4c-12.1,1.5-18.3-3.7-18.3-3.7c10.1,13.5,29.1,5.2,41.2,2.1
				c-9.9,5.3-18.4,14.1-28,13.7C218.6-488,212.7-504.9,182.4-503.6z M215.8-510.8c4.6,1.2,8.6,3.8,14.5,3.8c7.1,0,11.1-2.8,16.7-3.8
				c-5.7-1-9.6-3.8-16.7-3.8C224.4-514.6,220.4-512.1,215.8-510.8z M143.5-601.2c0,5.1,3,8.4,3,12.1c0-3.7,3-7,3-12.1
				c0-4.6-2.3-6.7-3-11.4C145.8-607.8,143.5-605.7,143.5-601.2z M77.4-510.8c-4.6-1.2-8.6-3.8-14.5-3.8c-7.1,0-11.1,2.8-16.7,3.8
				c5.7,1,9.6,3.8,16.7,3.8C68.7-507.1,72.7-509.6,77.4-510.8z M149.6-420.5c0-5.1-3-8.4-3-12.1c0,3.7-3,7-3,12.1
				c0,4.6,2.2,6.7,3,11.4C147.3-413.9,149.6-416,149.6-420.5z M191.6-510.8c-9.9,0-24.1-5-35-3c3.4-2.1,5-3.7,7.5-6.7
				c-4.4,0.4-6.8,0.8-10.1,2.3c2.7-6,3.2-9.4,3.7-15.4c-3.1,3.6-4.6,5.7-6.6,10.6c0.7-12.4-4.3-15.2-4.6-31.8
				c-0.4,16.5-5.3,19.3-4.6,31.8c-1.9-4.9-3.5-7.1-6.6-10.6c0.5,6,1.1,9.4,3.7,15.4c-3.4-1.5-5.7-1.9-10.1-2.3
				c2.5,3.1,4,4.6,7.5,6.7c-10.9-2-25,3-35,3c9.9,0,24.1,5,35,3c-3.4,2.1-5,3.7-7.5,6.7c4.4-0.4,6.8-0.8,10.1-2.3
				c-2.7,6-3.2,9.4-3.7,15.4c3.1-3.6,4.6-5.7,6.6-10.6c-0.7,12.4,4.3,15.2,4.6,31.8c0.4-16.5,5.3-19.3,4.6-31.8
				c1.9,4.9,3.5,7.1,6.6,10.6c-0.5-6-1.1-9.4-3.7-15.4c3.4,1.5,5.7,1.9,10.1,2.3c-2.5-3.1-4-4.6-7.5-6.7
				C167.5-505.9,181.7-510.8,191.6-510.8z"/>
			<path class="st1" d="M214.4-442.3c-5.5-4.6-10.7-12.5-11.4-22.8c-1.1,10.2-3.2,18.1-8.2,24c0,0,6.3-3.1,8.6-9.2
				C206.3-445,214.4-442.3,214.4-442.3z"/>
			<path class="st1" d="M228.4-391.5c-1.2-6-6.3-11.2-12.9-13.7c2.7,7,1.7,13.8-2.2,19.8c0.9-7.8-1.5-13.2-5.8-18
				c1.4,4.8,1.2,9.3-1.1,13.9c0.9-8.5-6.2-12.8-15.6-18.4c-12.7-7.6-17.3-16-19.3-27.2c3.5,6.9,9.9,13.1,27.9,17.3
				C221.7-412.8,229.8-405.5,228.4-391.5z"/>
			
				<linearGradient id="SVGID_21_" gradientUnits="userSpaceOnUse" x1="63131.0234" y1="43329.3438" x2="63107.7266" y2="43337.2813" gradientTransform="matrix(-1 0 0 1 63356.1094 -43809.7578)">
				<stop  offset="0.2331" style="stop-color:#FAA61A"/>
				<stop  offset="0.7607" style="stop-color:#FFC20E"/>
			</linearGradient>
			<path class="st23" d="M228.1-483.7c4.7,4.6,6.9,12.2,7.3,21.7c0.5,12.5,5.4,17.7,13.3,18.5c-11.8-4.6-4.4-17.1-7.9-25.8
				c6.4,4.8,4.4,20.7,17.6,21.4c-9.8-3.2-2.8-16.7-9.3-24.5c7.8,0.1,11.4-6.1,21.5-3.2c-4.7-3.6-10-5.9-18.8-5.9
				c6.3-3.9,9-8.6,11.3-15.3C253-486.3,238.2-482.2,228.1-483.7z"/>
			<path class="st5" d="M164.8-510.8c-4.3-0.7-9.4-3.2-14.1-1.2c2.3-1.8,1.1-3.5,2.5-5.2c-1.9,1.4-3.5,0.5-5,2.7
				c1.5-5.3-0.5-8.1-1.6-14.1c-1.1,6-3.2,8.8-1.6,14.1c-1.5-2.2-3.1-1.4-5-2.7c1.4,1.7,0.2,3.4,2.5,5.2c-4.7-2-9.9,0.6-14.1,1.2
				c4.3,0.7,9.4,3.2,14.1,1.2c-2.3,1.8-1.1,3.5-2.5,5.2c1.9-1.4,3.5-0.5,5-2.7c-1.5,5.3,0.5,8.1,1.6,14.1c1.1-6,3.2-8.8,1.6-14.1
				c1.5,2.2,3.1,1.4,5,2.7c-1.4-1.7-0.2-3.4-2.5-5.2C155.4-507.6,160.5-510.2,164.8-510.8z"/>
		</g>
	</g>
</pattern>
<path class="st24" d="M726.6,479.3l-46.9-46.9c-0.5-0.5-0.5-1.2,0-1.7l46.9-46.9c0.5-0.5,1.2-0.5,1.7,0l46.9,46.9
	c0.5,0.5,0.5,1.2,0,1.7l-46.9,46.9C727.8,479.8,727.1,479.8,726.6,479.3z"/>
<rect x="1169.7" y="396.3" transform="matrix(0.674 0.7388 -0.7388 0.674 711.6359 -749.4226)" class="st24" width="70.4" height="70.4"/>
<rect x="903.3" y="381.9" class="st25" width="100" height="100"/>
<rect x="1382.1" y="381.9" class="st26" width="100" height="100"/>
<rect x="903.3" y="745.4" class="st27" width="100" height="100"/>
<rect x="451.6" y="381.5" class="st28" width="100" height="100"/>
<rect x="916.6" y="607.5" transform="matrix(0.7071 0.7071 -0.7071 0.7071 734.7703 -485.4096)" class="st29" width="73.5" height="73.5"/>
<ellipse class="st30" cx="832.4" cy="939.2" rx="50" ry="25"/>
<ellipse class="st30" cx="324.7" cy="133.6" rx="50" ry="25"/>
<ellipse class="st30" cx="953.3" cy="939.2" rx="50" ry="25"/>
<ellipse class="st30" cx="1263.7" cy="332" rx="50" ry="25"/>
<ellipse class="st30" cx="324.7" cy="314.1" rx="50" ry="25"/>
<ellipse class="st30" cx="324.7" cy="252.1" rx="50" ry="25"/>
<ellipse class="st30" cx="324.7" cy="374.2" rx="50" ry="25"/>
<ellipse class="st30" cx="1074.2" cy="939.2" rx="50" ry="25"/>
<ellipse class="st30" cx="1269" cy="125" rx="50" ry="25"/>
<ellipse class="st30" cx="324.7" cy="193.1" rx="50" ry="25"/>
<text transform="matrix(1 0 0 1 466.8556 418.0032)" class="st31 st32">Smart Garden</text>
<text transform="matrix(1 0 0 1 922.1501 934.1657)"><tspan x="0" y="0" class="st30 st31 st32">Ambeint</tspan><tspan x="0" y="14.4" class="st30 st31 st32"> temperature</tspan></text>
<text transform="matrix(1 0 0 1 274.7261 193.0663)" class="st30 st31 st32">Water Temperature</text>
<text transform="matrix(1 0 0 1 788.3216 939.1657)" class="st30 st31 st32">Outside Humidity</text>
<text transform="matrix(1 0 0 1 287.6673 133.5957)" class="st30 st31 st32">Inside Humidity</text>
<text transform="matrix(1 0 0 1 1243.0084 125.0331)" class="st30 st31 st32">Acidity (pH)</text>
<text transform="matrix(1 0 0 1 308.8439 374.1839)" class="st30 st31 st32">Time</text>
<text transform="matrix(1 0 0 1 287.6673 252.0663)" class="st30 st31 st32">Total # of Plants</text>
<text transform="matrix(1 0 0 1 274.7261 314.1251)" class="st30 st31 st32">Water Conductivity</text>
<text transform="matrix(1 0 0 1 1043.0371 939.1656)" class="st30 st31 st32">Light Power </text>
<text transform="matrix(1 0 0 1 927.3561 431.9485)" class="st31 st32">Seed Pod</text>
<ellipse class="st30" cx="1263.1" cy="264.1" rx="50" ry="25"/>
<ellipse class="st30" cx="583.1" cy="126" rx="50" ry="25"/>
<ellipse class="st30" cx="693.2" cy="332" rx="50" ry="25"/>
<ellipse class="st30" cx="1432.1" cy="327.8" rx="60.2" ry="34.1"/>
<ellipse class="st30" cx="324.7" cy="762.4" rx="50" ry="25"/>
<ellipse class="st30" cx="324.7" cy="701.8" rx="50" ry="25"/>
<ellipse class="st30" cx="324.7" cy="636.2" rx="50" ry="25"/>
<ellipse class="st30" cx="324.7" cy="577.1" rx="50" ry="25"/>
<ellipse class="st30" cx="324.7" cy="510.1" rx="50" ry="25"/>
<ellipse class="st30" cx="324.7" cy="443" rx="50" ry="25"/>
<text transform="matrix(1 0 0 1 1384.991 318.5041)"><tspan x="0" y="0" class="st30 st31 st32">Amount saved:</tspan><tspan x="0" y="14.4" class="st30 st31 st32">Market cost - </tspan><tspan x="0" y="28.8" class="st30 st31 st32">Total cost to grow</tspan></text>
<text transform="matrix(1 0 0 1 293.5499 443.0032)" class="st30 st31 st32">Water Usage</text>
<text transform="matrix(1 0 0 1 293.5499 510.0616)" class="st30 st31 st32">Power Usage</text>
<text transform="matrix(1 0 0 1 293.5499 577.1201)" class="st30 st31 st32">Water level</text>
<text transform="matrix(1 0 0 1 293.5499 636.2384)" class="st30 st31 st32">Nutrient Level</text>
<text transform="matrix(1 0 0 1 293.5499 701.7672)"><tspan x="0" y="0" class="st30 st31 st32">Buffer solution </tspan><tspan x="0" y="14.4" class="st30 st31 st32">level</tspan></text>
<text transform="matrix(1 0 0 1 304.1381 762.4152)" class="st30 st31 st32">Location</text>
<text transform="matrix(1 0 0 1 659.0323 331.9738)" class="st30 st31 st32">Date planted</text>
<text transform="matrix(1 0 0 1 713.9147 435.415)" class="st31 st32">Plant</text>
<line class="st33" x1="551.6" y1="431.5" x2="680.4" y2="431.6"/>
<line class="st33" x1="774.5" y1="431.9" x2="902.6" y2="431.9"/>
<text transform="matrix(1 0 0 1 1240.8151 327.7685)"><tspan x="0" y="0" class="st30 st31 st32">Time to </tspan><tspan x="0" y="14.4" class="st30 st31 st32">Harvest</tspan></text>
<text transform="matrix(1 0 0 1 571.3058 129.5001)" class="st30 st31 st32">Type</text>
<text transform="matrix(1 0 0 1 1182.9414 431.653)" class="st31 st32">Harvest</text>
<text transform="matrix(1 0 0 1 1412.7382 431.9485)"><tspan x="0" y="0" class="st31 st32">Finished</tspan><tspan x="0" y="14.4" class="st31 st32">Produce</tspan></text>
<line class="st33" x1="1154.3" y1="429.8" x2="1002.8" y2="429.8"/>
<line class="st33" x1="1254.6" y1="432.8" x2="1382.2" y2="432.8"/>
<text transform="matrix(1 0 0 1 927.6673 795.4294)" class="st31 st32">Weather</text>
<text transform="matrix(1 0 0 1 1250.4125 264.1251)" class="st30 st31 st32">Yield</text>
<line class="st30" x1="401.8" y1="133.6" x2="399.2" y2="823.1"/>
<line class="st30" x1="451.6" y1="431.9" x2="400.7" y2="431.5"/>
<line class="st30" x1="401.8" y1="133.6" x2="374.7" y2="133.6"/>
<line class="st30" x1="374.7" y1="193.1" x2="400.6" y2="193.1"/>
<line class="st30" x1="374.7" y1="252.1" x2="400.6" y2="252.1"/>
<line class="st30" x1="374.7" y1="314.1" x2="401.8" y2="314.1"/>
<line class="st30" x1="374.7" y1="374.2" x2="400.6" y2="374.2"/>
<line class="st30" x1="374.7" y1="443" x2="401.8" y2="443"/>
<line class="st30" x1="374.7" y1="510.1" x2="400.4" y2="510.1"/>
<line class="st30" x1="374.7" y1="577.1" x2="400.1" y2="577.1"/>
<line class="st30" x1="374.7" y1="636.2" x2="399.9" y2="636.2"/>
<line class="st30" x1="374.7" y1="701.8" x2="400.6" y2="701.8"/>
<line class="st30" x1="374.7" y1="762.4" x2="399.4" y2="762.4"/>
<line class="st30" x1="726.6" y1="383.8" x2="693.2" y2="357"/>
<line class="st30" x1="953.3" y1="381.1" x2="953.3" y2="194"/>
<line class="st30" x1="1207.2" y1="381.8" x2="1263.7" y2="357"/>
<line class="st30" x1="1263.7" y1="307" x2="1263.1" y2="289.1"/>
<line class="st30" x1="1432.1" y1="381.5" x2="1432.1" y2="361.9"/>
<line class="st30" x1="832.4" y1="894.7" x2="1074.2" y2="894.7"/>
<line class="st30" x1="953.3" y1="914.2" x2="953.3" y2="894.7"/>
<line class="st30" x1="1074.2" y1="914.2" x2="1074.2" y2="894.7"/>
<line class="st30" x1="832.4" y1="914.2" x2="832.4" y2="894.7"/>
<line class="st30" x1="953.3" y1="845.4" x2="953.3" y2="894.7"/>
<text transform="matrix(1 0 0 1 927.3561 644.2414)"><tspan x="0" y="0" class="st31 st32">Exogenous</tspan><tspan x="0" y="14.4" class="st31 st32">Factors</tspan></text>
<line class="st29" x1="953.3" y1="481.9" x2="953.3" y2="592.3"/>
<line class="st29" x1="1432.1" y1="481.9" x2="1432.1" y2="522.9"/>
<line class="st29" x1="501.6" y1="526.4" x2="501.6" y2="481.9"/>
<line class="st29" x1="953.3" y1="696.2" x2="953.3" y2="745.4"/>
<line class="st29" x1="501.6" y1="526.4" x2="901.4" y2="644.2"/>
<line class="st29" x1="1432.1" y1="522.9" x2="1005.3" y2="644.2"/>
<ellipse class="st30" cx="324.7" cy="823.1" rx="50" ry="25"/>
<text transform="matrix(1 0 0 1 293.5499 823.0631)" class="st30 st31 st32">Light Power </text>
<line class="st30" x1="374.7" y1="823.1" x2="399.2" y2="823.1"/>
<text transform="matrix(1 0 0 1 782.4393 58.588)" class="st34 st35">Entity Relationship Data Model (SmartGarden)</text>
<ellipse class="st30" cx="922.2" cy="126" rx="50" ry="25"/>
<ellipse class="st30" cx="1035.8" cy="126" rx="50" ry="25"/>
<ellipse class="st30" cx="1149.4" cy="126" rx="50" ry="25"/>
<ellipse class="st30" cx="1385" cy="126" rx="50" ry="25"/>
<ellipse class="st30" cx="693.2" cy="125" rx="50" ry="25"/>
<ellipse class="st30" cx="802.6" cy="125" rx="50" ry="25"/>
<text transform="matrix(1 0 0 1 667.1797 125.0331)" class="st30 st31 st32">Phosphorus</text>
<text transform="matrix(1 0 0 1 894 125.9705)" class="st30 st31 st32">Potassium</text>
<text transform="matrix(1 0 0 1 790.8268 125.9705)" class="st30 st31 st32">Zinc</text>
<text transform="matrix(1 0 0 1 1024.5443 130.4375)" class="st30 st31 st32">Iron</text>
<text transform="matrix(1 0 0 1 1121.2699 128.7205)" class="st30 st31 st32">Magnesium</text>
<text transform="matrix(1 0 0 1 1367.0198 125.9705)" class="st30 st31 st32">Calcium</text>
<line class="st30" x1="583.1" y1="194" x2="1385" y2="193.1"/>
<line class="st30" x1="583.1" y1="151" x2="583.1" y2="194"/>
<line class="st30" x1="693.2" y1="150" x2="693.2" y2="193.1"/>
<line class="st30" x1="802.6" y1="150" x2="802.6" y2="193.1"/>
<line class="st30" x1="922.2" y1="151" x2="922.2" y2="193.1"/>
<line class="st30" x1="1035.8" y1="151" x2="1035.8" y2="193.1"/>
<line class="st30" x1="1149.4" y1="151" x2="1149.4" y2="193.1"/>
<line class="st30" x1="1269" y1="150" x2="1269" y2="194"/>
<line class="st30" x1="1385" y1="193.1" x2="1385" y2="151"/>
</svg>
